<svg xmlns="http://www.w3.org/2000/svg" viewBox="707.2 510.7 74.76 86.64">
  <path d="M763.6 595.9H779V549.2H746V564.5H761.6V568.7C761.6 576.8 754.2 581.1 745.1 581.1 733.8 581.1 726.5 574.7 726.5 560.7V547.3C726.5 533.4 733.8 526.9 745.1 526.9 754.8 526.9 760 532.2 762.5 538.7L777.4 530.1C771.2 517.3 760 510.7 745.1 510.7 722.4 510.7 707.2 526.2 707.2 554.4 707.2 582.5 722.3 597.3 741.5 597.3 754.1 597.3 761.8 591 763 582.6H763.6V595.9Z" fill="#841880"/>
  <path opacity="0.5" d="M729.5 548V547.3C729.5 533.4 736.8 526.9 748.1 526.9 757.8 526.9 763 532.2 765.5 538.7L780.4 530.1C774.2 517.3 763 510.7 748.1 510.7 726.8 510.7 712.1 524.3 710.4 549.3L729.5 548Z" fill="#E94056"/>
  <path opacity="0.5" d="M782 580.3V565.8L764.6 567V568.7C764.6 576.8 757.2 581.1 748.1 581.1 739.5 581.1 733.2 577.4 730.7 569.4L712.2 570.7C713.7 576.2 715.9 580.9 718.8 584.7L782 580.3Z" fill="#E94056"/>
  <path d="M779 565.8V549.2H746V564.5H761.6V567L779 565.8ZM727.7 569.4C726.9 566.9 726.5 564 726.5 560.7V547.8L707.4 549.1C707.3 550.8 707.2 552.6 707.2 554.4 707.2 560.4 707.9 565.9 709.2 570.7L727.7 569.4Z" fill="#E94056"/>
  <path d="M779 580.5V595.9H763.6V582.6H763C761.8 591 754.1 597.3 741.5 597.3 731.3 597.3 722.2 593.1 715.9 584.9L779 580.5Z" fill="#FF3F2A"/>
</svg>
